<svg width="741" version="1.1" xmlns="http://www.w3.org/2000/svg" height="647" viewBox="0 0 741 647" xmlns:xlink="http://www.w3.org/1999/xlink">
<defs>
<linearGradient id="linearGradient17">
<stop offset="0" style="stop-color:#fff"/>
<stop offset="1" style="stop-color:#fff;stop-opacity:.2"/>
</linearGradient>
<linearGradient gradientTransform="matrix(1.1473897,0,0,0.97456697,-1.389804,-11.996235)" id="linearGradient3861" y1="648.48639" x1="298.06561" y2="34.109749" x2="299.35092" gradientUnits="userSpaceOnUse">
<stop offset="0" style="stop-color:#00f;stop-opacity:0"/>
<stop offset="0.5" style="stop-color:#00f"/>
<stop offset="1" style="stop-color:#00f;stop-opacity:0"/>
</linearGradient>
<linearGradient gradientTransform="matrix(1.3170016,0,0,0.81550465,13.88503,4.6169873)" id="linearGradient3883" y1="-181.5473" x1="-158.84302" y2="724.56873" x2="453.96265" gradientUnits="userSpaceOnUse">
<stop offset="0" style="stop-color:#fff"/>
<stop offset="1" style="stop-color:#fff;stop-opacity:0"/>
</linearGradient>
<linearGradient gradientTransform="matrix(1.1058381,0,0,0.96556673,0.5,-1.9443467)" id="linearGradient3969" y1="1.9956766" x1="330.12155" y2="671.52277" x2="330.11218" gradientUnits="userSpaceOnUse">
<stop offset="0" style="stop-color:#999"/>
<stop offset="0.019117" style="stop-color:#f0f0f0"/>
<stop offset="0.033653" style="stop-color:#c8c8c8"/>
<stop offset="0.95616" style="stop-color:#787878"/>
<stop offset="0.97508" style="stop-color:#505050"/>
<stop offset="0.98702" style="stop-color:#787878"/>
<stop offset="1" style="stop-color:#999"/>
</linearGradient>
<linearGradient xlink:href="#linearGradient17" id="linearGradient18" y1="12" x1="1" y2="620" x2="1" gradientUnits="userSpaceOnUse"/>
<linearGradient gradientTransform="translate(733)" xlink:href="#linearGradient17" id="linearGradient19" y1="12" x1="1" y2="620" gradientUnits="userSpaceOnUse" x2="1"/>
</defs>
<path style="fill:url(#linearGradient3969);stroke:#000" d="m .5,.5 h 740 v 646 h -740 Z "/>
<path style="opacity:.5;fill:url(#linearGradient18)" d="M 1,12 H 7 V 620 H 1 Z"/>
<path style="fill:#000080" d="M 42,45 H 699 V 592 H 42 Z"/>
<path style="fill:url(#linearGradient3861)" d="M 49,45 V 592 H 699 V 45 Z"/>
<path style="opacity:.608;fill:url(#linearGradient3883)" d="m 74.3536,66.3897 c -8.12541,-0.0081 -14.7143,6.81253 -14.7064,15.2237 v 348.363 c 0,8.11036 6.14864,14.7935 13.9741,15.1899 92.5035,4.70069 205.678,-20.6423 298.461,-109.301 95.2771,-91.0415 203.459,-121.595 299.156,-123.694 7.98795,-0.17146 14.3793,-6.91926 14.3876,-15.1899 v -115.37 c 0.009,-8.41697 -6.58769,-15.241 -14.7187,-15.2258 h -596.567 l .0142,.0021 z "/>
<path style="opacity:.5;fill:url(#linearGradient19)" d="m 734,12 h 6 v 608 h -6 z"/>
</svg>
